<svg width="748" height="50" viewBox="0 0 748 50" fill="none" xmlns="http://www.w3.org/2000/svg">
<rect width="240" height="50" fill="#161C24" fill-opacity="0.04"/>
<path opacity="0.8" d="M17.5156 31H21.9141C24.3125 31 25.7344 29.8203 25.7344 27.8438V27.8281C25.7344 26.3438 24.7578 25.2891 23.2188 25.0938V24.9688C24.3047 24.7734 25.1641 23.7109 25.1641 22.5469V22.5312C25.1641 20.8125 23.8984 19.7266 21.8281 19.7266H17.5156V31ZM21.5312 20.9688C22.9297 20.9688 23.7422 21.6328 23.7422 22.7734V22.7891C23.7422 23.9766 22.875 24.5859 21.1719 24.5859H18.9219V20.9688H21.5312ZM21.5703 25.7969C23.3672 25.7969 24.2891 26.4609 24.2891 27.7578V27.7734C24.2891 29.0703 23.3984 29.7578 21.7031 29.7578H18.9219V25.7969H21.5703ZM30.3281 31.1484C31.4609 31.1484 32.3438 30.6562 32.875 29.7578H33V31H34.3594V25.2344C34.3594 23.4844 33.2109 22.4297 31.1562 22.4297C29.3594 22.4297 28.0781 23.3203 27.8594 24.6406L27.8516 24.6875H29.2109L29.2188 24.6641C29.4375 24.0078 30.1016 23.6328 31.1094 23.6328C32.3672 23.6328 33 24.1953 33 25.2344V26L30.5859 26.1484C28.625 26.2656 27.5156 27.1328 27.5156 28.6328V28.6484C27.5156 30.1797 28.7266 31.1484 30.3281 31.1484ZM28.9062 28.6172V28.6016C28.9062 27.7656 29.4688 27.3125 30.75 27.2344L33 27.0938V27.8594C33 29.0625 31.9922 29.9688 30.6094 29.9688C29.6328 29.9688 28.9062 29.4688 28.9062 28.6172ZM36.9922 31H47.3984V22.5781H46.0391V29.875H42.875V22.5781H41.5156V29.875H38.3516V22.5781H36.9922V31ZM53.5156 31.1484C55.5 31.1484 56.7031 30.0234 56.9922 28.8828L57.0078 28.8203H55.6484L55.6172 28.8906C55.3906 29.3984 54.6875 29.9375 53.5469 29.9375C52.0469 29.9375 51.0859 28.9219 51.0469 27.1797H57.1094V26.6484C57.1094 24.1328 55.7188 22.4297 53.4297 22.4297C51.1406 22.4297 49.6562 24.2109 49.6562 26.8125V26.8203C49.6562 29.4609 51.1094 31.1484 53.5156 31.1484ZM53.4219 23.6406C54.6641 23.6406 55.5859 24.4297 55.7266 26.0938H51.0703C51.2188 24.4922 52.1719 23.6406 53.4219 23.6406ZM63.8672 31H65.2266L69.3906 24.7188H69.5156V31H70.875V22.5781H69.5156L65.3516 28.8594H65.2266V22.5781H63.8672V31ZM74.9141 31V25.0078H75.0625L77.7109 30.7656H78.7578L81.4141 25.0078H81.5625V31H82.9219V22.5781H81.3438L78.3281 29.1094H78.2031L75.2031 22.5781H73.5547V31H74.9141ZM90.0703 31H91.4297V22.5781H88.5C86.5703 22.5781 85.3359 23.6328 85.3359 25.3594V25.375C85.3359 26.5234 86.0547 27.3984 87.2422 27.7344L84.8906 31H86.4922L88.6406 27.9844H90.0703V31ZM88.5 26.8594C87.3984 26.8594 86.7266 26.2266 86.7266 25.3438V25.3281C86.7266 24.3125 87.3906 23.7031 88.5 23.7031H90.0703V26.8594H88.5Z" fill="#454F5B"/>
<rect x="264" width="240" height="50" fill="#161C24" fill-opacity="0.04"/>
<path opacity="0.8" d="M281.516 31H285.914C288.312 31 289.734 29.8203 289.734 27.8438V27.8281C289.734 26.3438 288.758 25.2891 287.219 25.0938V24.9688C288.305 24.7734 289.164 23.7109 289.164 22.5469V22.5312C289.164 20.8125 287.898 19.7266 285.828 19.7266H281.516V31ZM285.531 20.9688C286.93 20.9688 287.742 21.6328 287.742 22.7734V22.7891C287.742 23.9766 286.875 24.5859 285.172 24.5859H282.922V20.9688H285.531ZM285.57 25.7969C287.367 25.7969 288.289 26.4609 288.289 27.7578V27.7734C288.289 29.0703 287.398 29.7578 285.703 29.7578H282.922V25.7969H285.57ZM294.328 31.1484C295.461 31.1484 296.344 30.6562 296.875 29.7578H297V31H298.359V25.2344C298.359 23.4844 297.211 22.4297 295.156 22.4297C293.359 22.4297 292.078 23.3203 291.859 24.6406L291.852 24.6875H293.211L293.219 24.6641C293.438 24.0078 294.102 23.6328 295.109 23.6328C296.367 23.6328 297 24.1953 297 25.2344V26L294.586 26.1484C292.625 26.2656 291.516 27.1328 291.516 28.6328V28.6484C291.516 30.1797 292.727 31.1484 294.328 31.1484ZM292.906 28.6172V28.6016C292.906 27.7656 293.469 27.3125 294.75 27.2344L297 27.0938V27.8594C297 29.0625 295.992 29.9688 294.609 29.9688C293.633 29.9688 292.906 29.4688 292.906 28.6172ZM300.992 31H311.398V22.5781H310.039V29.875H306.875V22.5781H305.516V29.875H302.352V22.5781H300.992V31ZM318.672 31H325.656V29.7344H320.078V25.8594H325.367V24.6094H320.078V20.9922H325.656V19.7266H318.672V31ZM328.031 31H329.391V25.7812C329.391 24.5938 330.227 23.6328 331.328 23.6328C332.391 23.6328 333.078 24.2812 333.078 25.2812V31H334.438V25.5859C334.438 24.5156 335.211 23.6328 336.383 23.6328C337.57 23.6328 338.141 24.25 338.141 25.4922V31H339.5V25.1797C339.5 23.4141 338.539 22.4297 336.82 22.4297C335.656 22.4297 334.695 23.0156 334.242 23.9062H334.117C333.727 23.0312 332.93 22.4297 331.789 22.4297C330.688 22.4297 329.891 22.9531 329.516 23.8594H329.391V22.5781H328.031V31ZM344.266 31.1484C345.398 31.1484 346.281 30.6562 346.812 29.7578H346.938V31H348.297V25.2344C348.297 23.4844 347.148 22.4297 345.094 22.4297C343.297 22.4297 342.016 23.3203 341.797 24.6406L341.789 24.6875H343.148L343.156 24.6641C343.375 24.0078 344.039 23.6328 345.047 23.6328C346.305 23.6328 346.938 24.1953 346.938 25.2344V26L344.523 26.1484C342.562 26.2656 341.453 27.1328 341.453 28.6328V28.6484C341.453 30.1797 342.664 31.1484 344.266 31.1484ZM342.844 28.6172V28.6016C342.844 27.7656 343.406 27.3125 344.688 27.2344L346.938 27.0938V27.8594C346.938 29.0625 345.93 29.9688 344.547 29.9688C343.57 29.9688 342.844 29.4688 342.844 28.6172ZM351.5 20.9531C352.016 20.9531 352.438 20.5312 352.438 20.0156C352.438 19.5 352.016 19.0781 351.5 19.0781C350.984 19.0781 350.562 19.5 350.562 20.0156C350.562 20.5312 350.984 20.9531 351.5 20.9531ZM350.812 31H352.172V22.5781H350.812V31ZM354.812 31H356.172V19.2344H354.812V31Z" fill="#454F5B"/>
<rect x="528" width="220" height="50" fill="#4295E4"/>
<path d="M604.992 19.5391C606.612 19.5391 607.896 20.0625 608.844 21.1094C609.797 22.1562 610.273 23.5755 610.273 25.3672C610.273 27.1589 609.799 28.5781 608.852 29.625C607.904 30.6667 606.617 31.1875 604.992 31.1875C603.367 31.1875 602.081 30.6667 601.133 29.625C600.185 28.5781 599.711 27.1589 599.711 25.3672C599.711 23.5755 600.185 22.1562 601.133 21.1094C602.081 20.0625 603.367 19.5391 604.992 19.5391ZM604.992 21.0781C603.919 21.0781 603.068 21.4635 602.438 22.2344C601.812 23.0052 601.5 24.0495 601.5 25.3672C601.5 26.6797 601.812 27.7214 602.438 28.4922C603.068 29.263 603.919 29.6484 604.992 29.6484C606.06 29.6484 606.906 29.263 607.531 28.4922C608.161 27.7214 608.477 26.6797 608.477 25.3672C608.477 24.0495 608.161 23.0052 607.531 22.2344C606.906 21.4635 606.06 21.0781 604.992 21.0781ZM618.141 22.7812V24.1172H615.562V31H613.883V24.1172H611.305V22.7812H618.141ZM624.695 31V24.1172H621.055V31H619.375V22.7812H626.383V31H624.695ZM632.492 22.6484C633.539 22.6484 634.378 23.0312 635.008 23.7969C635.638 24.5625 635.953 25.5938 635.953 26.8906C635.953 28.1875 635.641 29.2214 635.016 29.9922C634.391 30.7578 633.56 31.1406 632.523 31.1406C631.94 31.1406 631.422 31.0078 630.969 30.7422C630.521 30.4766 630.177 30.112 629.938 29.6484H629.898V33.7188H628.211V22.7812H629.844V24.1953H629.875C630.12 23.7161 630.471 23.3385 630.93 23.0625C631.388 22.7865 631.909 22.6484 632.492 22.6484ZM632.047 29.7109C632.714 29.7109 633.242 29.4583 633.633 28.9531C634.023 28.4427 634.219 27.7552 634.219 26.8906C634.219 26.0312 634.023 25.3464 633.633 24.8359C633.242 24.3255 632.714 24.0703 632.047 24.0703C631.401 24.0703 630.88 24.3281 630.484 24.8438C630.089 25.3594 629.891 26.0417 629.891 26.8906C629.891 27.7448 630.086 28.4297 630.477 28.9453C630.872 29.4557 631.396 29.7109 632.047 29.7109ZM640.289 29.8047C640.883 29.8047 641.38 29.625 641.781 29.2656C642.188 28.901 642.391 28.4531 642.391 27.9219V27.2734L640.367 27.3984C639.862 27.4349 639.471 27.5599 639.195 27.7734C638.924 27.9818 638.789 28.263 638.789 28.6172C638.789 28.9766 638.924 29.2656 639.195 29.4844C639.471 29.6979 639.836 29.8047 640.289 29.8047ZM639.82 31.1406C639.013 31.1406 638.354 30.9115 637.844 30.4531C637.339 29.9948 637.086 29.3984 637.086 28.6641C637.086 27.9453 637.352 27.375 637.883 26.9531C638.414 26.526 639.167 26.2865 640.141 26.2344L642.391 26.1016V25.4688C642.391 25.0104 642.245 24.6536 641.953 24.3984C641.661 24.138 641.258 24.0078 640.742 24.0078C640.263 24.0078 639.872 24.1146 639.57 24.3281C639.273 24.5417 639.086 24.8359 639.008 25.2109H637.414C637.461 24.4505 637.789 23.8307 638.398 23.3516C639.008 22.8724 639.81 22.6328 640.805 22.6328C641.799 22.6328 642.591 22.8776 643.18 23.3672C643.773 23.8568 644.07 24.513 644.07 25.3359V31H642.453V29.6484H642.414C642.18 30.1016 641.823 30.4635 641.344 30.7344C640.87 31.0052 640.362 31.1406 639.82 31.1406ZM649.234 24.0078H647.508V26.1641H649.07C650.023 26.1641 650.5 25.7995 650.5 25.0703C650.5 24.7318 650.391 24.4714 650.172 24.2891C649.953 24.1016 649.641 24.0078 649.234 24.0078ZM649.18 27.3438H647.508V29.7734H649.367C649.846 29.7734 650.211 29.6719 650.461 29.4688C650.711 29.2604 650.836 28.9583 650.836 28.5625C650.836 27.75 650.284 27.3438 649.18 27.3438ZM645.844 31V22.7812H649.578C650.38 22.7812 651.008 22.9688 651.461 23.3438C651.919 23.7135 652.148 24.224 652.148 24.875C652.148 25.3021 652.013 25.6875 651.742 26.0312C651.477 26.3698 651.146 26.5755 650.75 26.6484V26.7109C651.281 26.7839 651.708 26.9948 652.031 27.3438C652.354 27.6875 652.516 28.1172 652.516 28.6328C652.516 29.3568 652.255 29.9323 651.734 30.3594C651.219 30.7865 650.516 31 649.625 31H645.844ZM655.68 31H654.016V22.7812H655.68V28.5391H655.742L659.539 22.7812H661.203V31H659.539V25.2266H659.477L655.68 31ZM669.266 22.7812V24.1172H666.688V31H665.008V24.1172H662.43V22.7812H669.266ZM673.602 26.6406H672.18V29.6719H673.602C674.086 29.6719 674.471 29.5339 674.758 29.2578C675.049 28.9766 675.195 28.6094 675.195 28.1562C675.195 27.6979 675.049 27.3307 674.758 27.0547C674.466 26.7786 674.081 26.6406 673.602 26.6406ZM670.5 31V22.7812H672.18V25.3203H673.75C674.703 25.3203 675.461 25.5781 676.023 26.0938C676.591 26.6042 676.875 27.2917 676.875 28.1562C676.875 29.026 676.591 29.7188 676.023 30.2344C675.461 30.7448 674.703 31 673.75 31H670.5Z" fill="white"/>
</svg>
